<?xml version="1.0" standalone="no"?>
<!DOCTYPE svg PUBLIC "-//W3C//DTD SVG 20010904//EN"
 "http://www.w3.org/TR/2001/REC-SVG-20010904/DTD/svg10.dtd">
<svg version="1.0" xmlns="http://www.w3.org/2000/svg"
 width="235.000000pt" height="258.000000pt" viewBox="0 0 235.000000 258.000000"
 preserveAspectRatio="xMidYMid meet">

<g transform="translate(0.000000,258.000000) scale(0.100000,-0.100000)"
fill="#000000" stroke="none">
<path d="M474 2572 c-29 -20 -464 -567 -464 -583 0 -25 41 -64 91 -85 l38 -17
-28 -41 c-45 -65 -70 -121 -86 -188 -70 -296 113 -588 415 -664 121 -31 283
-5 399 63 107 63 200 178 243 301 34 98 32 259 -4 354 l-25 66 146 4 c133 3
151 5 202 29 67 32 128 84 154 133 l20 36 352 0 c306 0 354 2 367 16 24 23 24
545 0 568 -14 14 -110 16 -912 16 -493 0 -902 -4 -908 -8z m1236 -292 l0 -200
-50 0 -50 0 0 34 c0 19 -7 42 -16 50 -33 34 -84 8 -84 -43 0 -52 -32 -124 -75
-166 -65 -66 -106 -75 -327 -75 l-189 0 16 30 c28 54 77 70 219 70 151 0 162
6 153 83 -11 90 -77 172 -164 203 -28 10 -109 13 -308 14 l-270 0 -135 -135
c-146 -147 -188 -173 -255 -161 -21 4 -35 12 -33 19 2 7 88 117 193 245 l189
232 593 0 593 0 0 -200z m200 0 l0 -200 -50 0 -50 0 0 200 0 200 50 0 50 0 0
-200z m300 0 l0 -200 -100 0 -100 0 0 200 0 200 100 0 100 0 0 -200z m-1515
-150 l-49 -50 -70 0 -70 0 49 50 49 50 70 0 70 0 -49 -50z m431 34 c30 -14 74
-61 74 -78 0 -3 -40 -6 -89 -6 -101 0 -158 -16 -213 -60 l-36 -30 -49 27 c-26
14 -50 28 -52 30 -3 2 24 33 59 68 l64 65 104 0 c75 0 113 -4 138 -16z m-473
-199 c37 -8 89 -26 115 -40 47 -25 47 -25 44 -73 -4 -59 6 -70 73 -74 49 -3
50 -4 77 -55 132 -261 -39 -584 -334 -634 -291 -49 -558 218 -509 509 31 183
167 328 344 367 81 18 108 18 190 0z"/>
<path d="M422 1768 c-7 -7 -12 -24 -12 -38 0 -33 17 -50 50 -50 33 0 50 17 50
50 0 33 -17 50 -50 50 -14 0 -31 -5 -38 -12z"/>
<path d="M522 1567 c-216 -217 -234 -241 -200 -275 34 -34 59 -17 276 201 216
217 234 241 200 275 -34 34 -59 17 -276 -201z"/>
<path d="M622 1368 c-7 -7 -12 -24 -12 -38 0 -33 17 -50 50 -50 33 0 50 17 50
50 0 33 -17 50 -50 50 -14 0 -31 -5 -38 -12z"/>
<path d="M1630 1605 c-202 -56 -354 -209 -405 -410 -26 -101 -16 -235 25 -330
l19 -43 -147 -4 c-134 -3 -152 -5 -203 -29 -67 -32 -128 -84 -154 -133 l-20
-36 -352 0 c-306 0 -354 -2 -367 -16 -14 -13 -16 -53 -16 -284 0 -231 2 -271
16 -284 14 -14 72 -16 527 -14 l511 3 13 25 c10 20 10 29 -1 45 -13 19 -26 20
-240 23 l-226 2 0 200 0 200 50 0 50 0 0 -34 c0 -52 40 -82 78 -57 7 4 20 39
27 76 17 79 50 133 105 169 61 40 110 47 304 44 l179 -3 -29 -34 c-43 -51 -77
-61 -213 -61 -136 0 -151 -7 -151 -68 1 -79 64 -171 145 -208 49 -23 57 -24
326 -24 l275 0 130 130 c144 146 191 176 254 165 22 -4 40 -10 40 -14 0 -5
-86 -113 -191 -242 l-191 -234 -170 -5 c-157 -5 -172 -7 -184 -25 -11 -16 -11
-25 -1 -45 l13 -25 189 -2 c105 -2 195 0 201 5 30 21 464 567 464 583 0 25
-41 64 -90 85 l-38 17 39 59 c61 96 84 175 84 298 0 83 -5 119 -23 172 -57
164 -183 291 -348 349 -79 28 -229 35 -304 14z m222 -96 c230 -49 389 -281
350 -510 -25 -146 -118 -270 -249 -331 -129 -61 -257 -61 -387 0 l-64 30 5 44
c7 59 -12 78 -76 78 l-47 0 -27 58 c-48 101 -59 202 -33 297 63 238 294 383
528 334z m-346 -926 c27 -14 51 -28 53 -30 3 -2 -24 -33 -59 -68 l-64 -65
-104 0 c-116 0 -159 13 -192 60 -11 16 -20 31 -20 34 0 3 40 6 88 6 102 0 163
17 213 60 19 16 35 29 35 30 1 0 23 -12 50 -27z m-996 -263 l0 -200 -200 0
-200 0 0 200 0 200 200 0 200 0 0 -200z m1255 150 l-49 -50 -70 0 -70 0 49 50
49 50 70 0 70 0 -49 -50z"/>
<path d="M1726 1404 c-9 -9 -16 -32 -16 -54 0 -30 -5 -40 -20 -45 -33 -10 -72
-71 -77 -119 -7 -60 26 -119 82 -146 23 -11 51 -20 62 -20 50 0 70 -58 29 -85
-27 -18 -50 -12 -89 23 -23 22 -31 24 -55 16 -56 -19 -34 -92 41 -130 22 -12
27 -21 27 -54 0 -42 20 -70 50 -70 30 0 50 28 50 70 0 32 5 41 33 58 63 37 86
135 47 200 -23 38 -75 72 -110 72 -56 0 -88 50 -54 84 21 21 54 20 84 -4 32
-25 52 -25 75 0 26 29 12 65 -35 92 -35 20 -40 27 -40 60 0 40 -21 68 -50 68
-10 0 -26 -7 -34 -16z"/>
<path d="M322 408 c-7 -7 -12 -24 -12 -38 0 -33 17 -50 50 -50 14 0 31 5 38
12 7 7 12 24 12 38 0 33 -17 50 -50 50 -14 0 -31 -5 -38 -12z"/>
<path d="M1226 104 c-30 -30 -9 -84 33 -84 22 0 51 30 51 53 0 21 -27 47 -50
47 -10 0 -26 -7 -34 -16z"/>
</g>
</svg>
